# xmcd
#
# Track frame offsets: 
#        150
#        16621
#        43294
#        60692
#        80302
#        93742
#        109649
#        134589
#        158982
#        174085
#        198885
#        219472
#        240125
#        258172
#        295225
#        312207
#        327727
#
# Disc length: 4755 seconds
#
# Revision: 1
# Processed by: cddbd v1.5.2PL0 Copyright (c) Steve Scherf et al.
# Submitted via: ExactAudioCopy v0.99pb1
#
DISCID=e5129111
DTITLE=Green Peter - Bandit and Splinter Group
DYEAR=1977
DGENRE=Blues
TTITLE0=Proud Into
TTITLE1=The Clown
TTITLE2=In The Skies
TTITLE3=Rubbing My Eyes
TTITLE4=Bandit
TTITLE5=Promised Land
TTITLE6=Last Train To San Antone
TTITLE7=Lost My Love
TTITLE8=Momma Don't Cha Cry
TTITLE9=One Woman Love
TTITLE10=Tribal Dance
TTITLE11=Just For You
TTITLE12=Black Woman
TTITLE13=Funky Jams
TTITLE14=Hitch Hiking Woman (Peter Green Splinter Group, EP)
TTITLE15=Travelling Riverside Blues (Peter Green Spinter Group, EP)
TTITLE16=Look On Yonder Wall (live, bonus track)
EXTD=
EXTT0=
EXTT1=
EXTT2=
EXTT3=
EXTT4=
EXTT5=
EXTT6=
EXTT7=
EXTT8=
EXTT9=
EXTT10=
EXTT11=
EXTT12=
EXTT13=
EXTT14=
EXTT15=
EXTT16=
PLAYORDER=
